<?xml version="1.0" encoding="utf-8"?>
<!-- Svg Vector Icons : http://www.onlinewebfonts.com/icon -->
<!DOCTYPE svg PUBLIC "-//W3C//DTD SVG 1.1//EN" "http://www.w3.org/Graphics/SVG/1.1/DTD/svg11.dtd">
<svg version="1.1" xmlns="http://www.w3.org/2000/svg" xmlns:xlink="http://www.w3.org/1999/xlink" x="0px" y="0px" viewBox="0 0 1000 1000" enable-background="new 0 0 1000 1000" xml:space="preserve">
<metadata> Svg Vector Icons : http://www.onlinewebfonts.com/icon </metadata>
<g><path d="M307.6,425.1H256l-21.2,109.1H283c0,0,58.7,1.5,61.4-70.7C347.2,422,307.6,425.1,307.6,425.1z"/><path d="M748.1,425.1h-51.6l-21.2,109.1h48.2c0,0,58.7,1.5,61.4-70.7C787.8,422,748.1,425.1,748.1,425.1z"/><path d="M500,241.9C229.4,241.9,10,357.5,10,500c0,142.5,219.4,258.1,490,258.1c270.6,0,490-115.5,490-258.1C990,357.5,770.6,241.9,500,241.9z M280.6,574.7l-52.2-0.4l-14.7,68.6h-55.9l50.4-258.1c0,0,71.6,0.9,118.6,0c47-0.9,93.2,32.3,71.6,107.5C372.4,582.1,280.6,574.7,280.6,574.7z M531.9,574.7c0,0,13.4-60,19.3-101.6c2.4-17.1,13-46.2-15-46.2c-23.4-0.1-58.4-0.2-58.4-0.2l-29.5,148.1H393l51.6-259.3h56.6L487,384.8h58.4c0,0,77.4-6.1,68.2,57.8c-9.2,63.9-26.4,132.1-26.4,132.1H531.9z M838.8,492.4c-25.8,89.7-117.7,82.3-117.7,82.3l-52.2-0.4l-14.7,68.6h-55.9l50.4-258.1c0,0,71.6,0.9,118.6,0C814.2,383.9,860.4,417.1,838.8,492.4z"/></g>
</svg>